<svg id="Artboard_01" enable-background="new 0 0 64 64" height="512" viewBox="0 0 64 64" width="512" xmlns="http://www.w3.org/2000/svg"><path d="m12 14.012h40v5h-40z" fill="#f4b2b0"/><path d="m30 2.012h4v6h-4z" fill="#f4b2b0"/><g fill="#b3404a"><path d="m31 28h2v30h-2z"/><path d="m23.967 42h30.067v2h-30.067z" transform="matrix(.066 -.998 .998 .066 -6.496 79.058)"/><path d="m24 27.967h2v30.067h-2z" transform="matrix(.998 -.067 .067 .998 -2.805 1.758)"/><path d="m12 20h2.09l3.783 40.209c.109 1.565 1.423 2.791 2.992 2.791h22.27c1.569 0 2.883-1.226 2.991-2.767l3.784-40.233h2.09c.552 0 1-.448 1-1v-5c0-.552-.448-1-1-1h-2.08c-.488-3.387-3.401-6-6.92-6h-8v-5c0-.552-.448-1-1-1h-4c-.552 0-1 .448-1 1v5h-8c-3.519 0-6.432 2.613-6.92 6h-2.08c-.552 0-1 .448-1 1v5c0 .552.448 1 1 1zm32.132 40.069c-.036.522-.474.931-.997.931h-22.27c-.523 0-.961-.409-1-.955l-3.766-40.045h31.803zm-13.132-57.069h2v4h-2zm-10 6h22c2.414 0 4.434 1.721 4.899 4h-31.798c.465-2.279 2.485-4 4.899-4zm-8 6h38v3h-38z"/><path d="m28 27h8c.552 0 1-.448 1-1v-4c0-.552-.448-1-1-1h-8c-.552 0-1 .448-1 1v4c0 .552.448 1 1 1zm1-4h6v2h-6z"/></g></svg>